<svg xmlns="http://www.w3.org/2000/svg" xmlns:xlink="http://www.w3.org/1999/xlink" fill="none" version="1.1" width="28" height="28" viewBox="0 0 28 28"><defs><clipPath id="master_svg0_88_3619"><rect x="0" y="0" width="28" height="28" rx="6"/></clipPath></defs><g clip-path="url(#master_svg0_88_3619)"><rect x="0" y="0" width="28" height="28" rx="6" fill="#1677FF" fill-opacity="1"/><g><path d="M12.64777740234375,10.491856494140624C12.55696740234375,10.582296494140625,12.41693740234375,10.604836494140624,12.30151740234375,10.541116494140624C10.48304740234375,9.806016494140625,8.664577402343749,9.084876494140625,6.846107402343749,8.356756494140626C6.6437974023437505,8.279986494140624,6.44603740234375,8.193916494140625,6.248147402343751,8.110266494140625L6.25483740234375,8.037306494140624C6.33208740234375,8.000866494140626,6.40737740234375,7.960396494140625,6.48695740234375,7.928716494140625Q6.91191740234375,7.7598764941406255,7.3363174023437505,7.591156494140625Q9.61344740234375,6.690556494140624,11.89222740234375,5.781666494140625C12.01461740234375,5.723516494140625,12.15876740234375,5.7425164941406255,12.26274740234375,5.830516494140625C12.53417740234375,6.047376494140625,12.92969740234375,5.973386494140625,13.10846740234375,5.672236494140625C13.18284740234375,5.555878494140625,13.21626740234375,5.423808494140625,13.21199740234375,5.294160494140625C13.20687740234375,5.098084494140625,13.11552740234375,4.907055494140625,12.94921740234375,4.783699494140625C12.67330740234375,4.572293694140625,12.27876740234375,4.656321194140625,12.10817740234375,4.962822494140625C12.01837740234375,5.111950494140625,11.87161740234375,5.215735494140625,11.70356740234375,5.248953494140625Q10.368687402343749,5.627825494140625,9.035827402343749,6.005176494140625Q7.503437402343749,6.4386964941406255,5.970967402343749,6.870266494140624C5.9101274023437504,6.889886494140625,5.84720740234375,6.899016494140625,5.78464740234375,6.897916494140625C5.69327740234375,6.895596494140625,5.60277740234375,6.8714364941406245,5.5207674023437505,6.826166494140625C5.36592740234375,6.748086494140625,5.19750740234375,6.702226494140625,5.02522740234375,6.691236494140625C4.46452140234375,6.6688764941406244,3.95987940234375,7.037076494140625,3.79776280234375,7.5868564941406245C3.61744440234375,8.138626494140624,3.82508870234375,8.745496494140625,4.30251940234375,9.061616494140626C4.45807940234375,9.152396494140625,4.54707440234375,9.328176494140624,4.52982740234375,9.510586494140625C4.54573940234375,10.371306494140626,4.57983640234375,11.229696494140626,4.6048394023437496,12.090416494140625C4.6389364023437505,13.390796494140625,4.67530540234375,14.688856494140625,4.70030940234375,15.986956494140625C4.69672640234375,16.047056494140627,4.68181340234375,16.105356494140626,4.65687240234375,16.158856494140625C4.6363434023437495,16.200556494140624,4.60965140234375,16.239156494140623,4.57743140234375,16.273156494140625C4.51707040234375,16.330756494140623,4.46996040234375,16.397456494140627,4.43623840234375,16.469156494140627C4.31947340234375,16.708056494140624,4.35274640234375,17.006056494140623,4.54119340234375,17.212856494140624C4.76975740234375,17.453356494140625,5.14494740234375,17.460656494140625,5.38210740234375,17.229256494140625C5.63065740234375,16.982456494140624,5.64761740234375,16.580256494140627,5.42087740234375,16.312556494140622C5.34986740234375,16.219156494140627,5.3093174023437495,16.105256494140626,5.30494740234375,15.986956494140625C5.32540740234375,15.163456494140625,5.3640474023437505,14.342246494140625,5.38678740234375,13.521076494140624Q5.43906740234375,11.478606494140625,5.47770740234375,9.438466494140625C5.45665740234375,9.280176494140626,5.52646740234375,9.123606494140624,5.65709740234375,9.036146494140624C5.67771740234375,9.022336494140625,5.69927740234375,9.010636494140625,5.72148740234375,9.001056494140624C5.83724740234375,8.955346494140624,5.96902740234375,8.966046494140624,6.077667402343749,9.033796494140624C8.06207740234375,9.929406494140625,10.04647740234375,10.831996494140625,12.03543740234375,11.725286494140626C12.16697740234375,11.781606494140625,12.26011740234375,11.904276494140625,12.28092740234375,12.048636494140625C12.38134740234375,12.497796494140626,12.66298740234375,12.882386494140626,13.05605740234375,13.107096494140626C13.20813740234375,13.176426494140625,13.29972740234375,13.337646494140625,13.28335740234375,13.507206494140625L13.28335740234375,13.562526494140625C13.28331740234375,14.197186494140626,13.28185740234375,14.831856494140625,13.28039740234375,15.466556494140624C13.27742740234375,16.754256494140627,13.27445740234375,18.041956494140624,13.28335740234375,19.329756494140625L13.28335740234375,19.353156494140627L13.28348740234375,19.356356494140627C13.28328740234375,19.752956494140626,13.26701740234375,20.084656494140624,12.84478740234375,20.255656494140624C12.83652740234375,20.259056494140623,12.82846740234375,20.262356494140626,12.82057740234375,20.265656494140625C12.71999740234375,20.307356494140627,12.64752740234375,20.337456494140625,12.53791740234375,20.283556494140626C11.196797402343751,19.608956494140624,9.84885740234375,18.943656494140626,8.51000740234375,18.266656494140626C8.451927402343749,18.233456494140626,8.39920740234375,18.191856494140623,8.35332740234375,18.143556494140626C8.31102740234375,18.097056494140624,8.27491740234375,18.044656494140625,8.24619740234375,17.987556494140627C8.140747402343749,17.775556494140623,7.93169740234375,17.649456494140622,7.71130740234375,17.645656494140624C7.63423740234375,17.643756494140625,7.55569740234375,17.656856494140627,7.47965740234375,17.686456494140625C7.18775740234375,17.799956494140623,7.02633740234375,18.120256494140627,7.10523740234375,18.429456494140624C7.18627740234375,18.754356494140623,7.51247740234375,18.947556494140628,7.82794740234375,18.857656494140628C7.97225740234375,18.814456494140625,8.127917402343751,18.841056494140624,8.25074740234375,18.929756494140626C9.480487402343751,19.671856494140627,10.70794740234375,20.418556494140624,11.94450740234375,21.149056494140623C12.12174740234375,21.229656494140624,12.22946740234375,21.416456494140625,12.21273740234375,21.614256494140626C12.19640740234375,22.636756494140624,13.06366740234375,23.440056494140624,14.05623740234375,23.321756494140626C14.33213740234375,23.284656494140624,14.58723740234375,23.179756494140626,14.80463740234375,23.023556494140625C15.15793740234375,22.769556494140627,15.41163740234375,22.379756494140626,15.49343740234375,21.924356494140625C15.62563740234375,21.188756494140623,15.27923740234375,20.449856494140626,14.63583740234375,20.095156494140625C14.49663740234375,20.033356494140627,14.41223740234375,19.886856494140623,14.42673740234375,19.732356494140625L14.42673740234375,13.518846494140625C14.42673740234375,13.376936494140624,14.43583740234375,13.255976494140626,14.59043740234375,13.176876494140625C14.63323740234375,13.155066494140625,14.67503740234375,13.131576494140624,14.71563740234375,13.106496494140625C15.18623740234375,12.820136494140625,15.50033740234375,12.321086494140625,15.55653740234375,11.757756494140626C15.57573740234375,11.659686494140626,15.63543740234375,11.574876494140625,15.72023740234375,11.525136494140625Q17.21773740234375,10.863086494140624,18.72543740234375,10.211646494140625Q19.22053740234375,9.997966494140625,19.71623740234375,9.785176494140625C19.79883740234375,9.752956494140625,19.88793740234375,9.742556494140626,19.97543740234375,9.754846494140626C20.28243740234375,9.823516494140625,20.59053740234375,9.643776494140624,20.68923740234375,9.338436494140625C20.77363740234375,9.091906494140625,20.70173740234375,8.823306494140624,20.51903740234375,8.654536494140626C20.48303740234375,8.620866494140625,20.44253740234375,8.591106494140625,20.39813740234375,8.566216494140626C20.12873740234375,8.414886494140625,19.79123740234375,8.496226494140625,19.61613740234375,8.754646494140625C19.53793740234375,8.855906494140626,19.43643740234375,8.935816494140624,19.32063740234375,8.987266494140625C18.38733740234375,9.350496494140625,17.45163740234375,9.708866494140626,16.51703740234375,10.069406494140626C16.15953740234375,10.206926494140625,15.80213740234375,10.344676494140625,15.44523740234375,10.482966494140625C15.31393740234375,10.558086494140625,15.14893740234375,10.525686494140626,15.05423740234375,10.406196494140625C14.43113740234375,9.733266494140626,13.39530740234375,9.724096494140625,12.76040740234375,10.365096494140625C12.73397740234375,10.391666494140626,12.70824740234375,10.419356494140626,12.68326740234375,10.448166494140626C12.67261740234375,10.464096494140625,12.66070740234375,10.478676494140625,12.64777740234375,10.491856494140624ZM22.29503740234375,15.136356494140625C22.29233740234375,15.246356494140626,22.22683740234375,15.346056494140624,22.12583740234375,15.389056494140625C21.61983740234375,15.657756494140624,21.31143740234375,16.201856494140625,21.33483740234375,16.784856494140627C21.35393740234375,16.827056494140624,21.36303740234375,16.863556494140624,21.36433740234375,16.895656494140624C21.36573740234375,17.016156494140624,21.24713740234375,17.080856494140626,21.11533740234375,17.152756494140625L21.10743740234375,17.157056494140626C19.94133740234375,17.826956494140624,18.77753740234375,18.503956494140624,17.61143740234375,19.169256494140626C17.52303740234375,19.217556494140624,17.42083740234375,19.232456494140624,17.322737402343748,19.211156494140624C16.969137402343748,19.088956494140625,16.587637402343752,19.294756494140625,16.48623740234375,19.662456494140624C16.398937402343748,19.982656494140628,16.551037402343752,20.313856494140623,16.83333740234375,20.455156494140624C16.870037402343748,20.474256494140626,16.90903740234375,20.490056494140624,16.95003740234375,20.502256494140624C17.30423740234375,20.593856494140624,17.66253740234375,20.368956494140626,17.743337402343748,20.004456494140626C17.77163740234375,19.914256494140623,17.830437402343748,19.837556494140625,17.909337402343752,19.788056494140626C19.14813740234375,19.164656494140623,20.39383740234375,18.550456494140626,21.63263740234375,17.927056494140626C21.66603740234375,17.903456494140627,21.70383740234375,17.890056494140623,21.74213740234375,17.886656494140624C21.80063740234375,17.886056494140625,21.85883740234375,17.908556494140626,21.90303740234375,17.952656494140626C22.09083740234375,18.103856494140626,22.30323740234375,18.198856494140625,22.52163740234375,18.240856494140623C23.07653740234375,18.357856494140627,23.67463740234375,18.130056494140625,24.00803740234375,17.608356494140626C24.48753740234375,16.888856494140626,24.28013740234375,15.905056494140625,23.55333740234375,15.451856494140625C23.38823740234375,15.367356494140624,23.28943740234375,15.189056494140624,23.30333740234375,15.000656494140625Q23.24193740234375,12.264916494140625,23.15563740234375,9.533876494140625C23.13433740234375,9.382206494140625,23.22393740234375,9.237246494140624,23.36703740234375,9.191916494140624C24.01563740234375,8.851786494140626,24.26803740234375,8.035066494140626,23.92843740234375,7.3750964941406245C23.59363740234375,6.708066494140625,22.77833740234375,6.468326494140625,22.14863740234375,6.851686494140624C22.05413740234375,6.901926494140625,21.94563740234375,6.916746494140625,21.84163740234375,6.893526494140625Q19.136737402343748,6.1444764941406245,16.44763740234375,5.365171494140625C16.36143740234375,5.333658494140625,16.28893740234375,5.271827494140625,16.243037402343752,5.190701494140625C16.08263740234375,4.839456494140625,15.66453740234375,4.701473394140625,15.33383740234375,4.890612494140625C15.01553740234375,5.084082494140625,14.91153740234375,5.505509494140625,15.10203740234375,5.830456494140625C15.29893740234375,6.167016494140625,15.73783740234375,6.253826494140625,16.04313740234375,6.016556494140625C16.10983740234375,5.970436494140625,16.192937402343752,5.956806494140625,16.270437402343752,5.979336494140625Q17.576937402343752,6.4979864941406245,18.88113740234375,7.014456494140624Q20.12633740234375,7.512356494140625,21.36883740234375,8.007816494140625C21.44763740234375,8.053026494140624,21.50443740234375,8.129706494140624,21.52573740234375,8.219506494140624C21.59893740234375,8.677046494140626,21.89813740234375,9.063316494140626,22.31673740234375,9.240736494140625C22.39933740234375,9.262566494140625,22.45523740234375,9.338076494140626,22.45653740234375,9.422186494140625C22.45623740234375,9.432206494140626,22.45513740234375,9.442316494140625,22.45323740234375,9.452456494140625Q22.36453740234375,12.278876494140626,22.29413740234375,15.105256494140624L22.29423740234375,15.106956494140626Q22.29413740234375,15.110756494140626,22.29403740234375,15.114556494140626C22.29463740234375,15.121856494140625,22.29493740234375,15.129056494140626,22.29503740234375,15.136356494140625Z" fill-rule="evenodd" fill="#FFFFFF" fill-opacity="1"/><path d="M12.48414740234375,10.296196494140625L12.47545740234375,10.309196494140625Q12.47265740234375,10.313376494140625,12.46933740234375,10.316756494140625Q12.44900740234375,10.336976494140625,12.42233740234375,10.322256494140625L12.40883740234375,10.314806494140626L8.75788740234375,8.851396494140625L6.93885740234375,8.124596494140626Q6.881017402343749,8.102636494140626,6.804157402343749,8.071676494140625L7.42864740234375,7.823476494140625L11.99212740234375,6.010986494140625L11.99952740234375,6.007466494140625Q12.05416740234375,5.981506494140625,12.10123740234375,6.021346494140625L12.10393740234375,6.023636494140625L12.10669740234375,6.025846494140625Q12.39974740234375,6.259966494140625,12.76633740234375,6.191366494140625Q13.12959740234375,6.123386494140625,13.32132740234375,5.803396494140625Q13.47111740234375,5.566898494140625,13.46185740234375,5.285927494140625Q13.45033740234375,4.844128494140625,13.09814740234375,4.582904794140625Q12.80288740234375,4.3566314941406254,12.43712740234375,4.434529494140625Q12.07534740234375,4.511579494140625,11.89217740234375,4.836867494140625Q11.80851740234375,4.973370494140625,11.65508740234375,5.003698494140625L11.64513740234375,5.005665494140625L8.96764740234375,5.764656494140625L5.898627402343751,6.6309164941406245L5.894247402343749,6.632326494140625Q5.84284740234375,6.6489064941406255,5.78905740234375,6.647956494140625Q5.71167740234375,6.645986494140625,5.64157740234375,6.607296494140625L5.63748740234375,6.605036494140625L5.63332740234375,6.602936494140625Q5.35313740234375,6.461646494140625,5.04114740234375,6.4417464941406255L5.03816740234375,6.441556494140625L5.03519740234375,6.441436494140625Q4.52767240234375,6.421196494140625,4.11466840234375,6.722536494140625Q3.70500310234375,7.0214464941406245,3.55901740234375,7.512606494140625Q3.19603540234375,8.628826494140625,4.16450140234375,9.270066494140625L4.17040240234375,9.273966494140625L4.17651440234375,9.277536494140625Q4.29425040234375,9.346246494140626,4.28093740234375,9.487056494140624L4.27960940234375,9.501096494140626L4.27987040234375,9.515206494140624Q4.29049640234375,10.089976494140625,4.32786940234375,11.236036494140624Q4.34660040234375,11.810436494140625,4.35494540234375,12.097676494140625L4.45008040234375,15.980656494140625Q4.44639240234375,16.018656494140625,4.43027140234375,16.053256494140626Q4.41903840234375,16.075956494140627,4.39916540234375,16.097756494140626Q4.2803934023437495,16.212956494140627,4.20996240234375,16.362856494140622Q3.93710540234375,16.921056494140625,4.35639840234375,17.381256494140626Q4.60333440234375,17.641156494140624,4.95356740234375,17.647956494140622Q5.30394740234375,17.654756494140624,5.55668740234375,17.408156494140627Q5.81415740234375,17.152556494140626,5.82950740234375,16.789356494140627Q5.84467740234375,16.430256494140625,5.61675740234375,16.157056494140626Q5.5606974023437505,16.080956494140626,5.55513740234375,15.985356494140625L5.63664740234375,13.529366494140625L5.72807740234375,9.424696494140626L5.72552740234375,9.405516494140624Q5.71156740234375,9.300536494140626,5.796197402343751,9.243876494140626Q5.80624740234375,9.237146494140624,5.81705740234375,9.232146494140625Q5.88378740234375,9.207516494140625,5.94537740234375,9.245926494140626L5.95953740234375,9.254756494140626L11.93250740234375,11.953116494140625Q12.01997740234375,11.990616494140625,12.03348740234375,12.084316494140625L12.03485740234375,12.093816494140626L12.03694740234375,12.103186494140626Q12.21875740234375,12.916396494140624,12.93197740234375,13.324126494140625L12.94192740234375,13.329816494140625L12.95235740234375,13.334566494140624Q13.04479740234375,13.376716494140625,13.03451740234375,13.483196494140625L13.03335740234375,13.495176494140624L13.03335740234375,13.562526494140625L13.03039740234375,15.466156494140625L13.03335740234375,19.329856494140625L13.03335740234375,19.358056494140627L13.03347740234375,19.361056494140627Q13.03198740234375,19.910056494140626,12.75094740234375,20.023956494140627L12.72510740234375,20.034556494140624L12.72471740234375,20.034756494140623Q12.65626740234375,20.063156494140625,12.64828740234375,20.059256494140627L11.04653740234375,19.257756494140626L8.628827402343749,18.046556494140624Q8.576777402343751,18.015856494140625,8.534697402343749,17.971456494140625Q8.49717740234375,17.930156494140626,8.46948740234375,17.875156494140626Q8.23545740234375,17.404656494140625,7.71559740234375,17.395756494140628Q7.54801740234375,17.391556494140623,7.3890374023437495,17.453456494140624Q6.66954740234375,17.733256494140626,6.862997402343749,18.491356494140625Q6.94872740234375,18.834956494140627,7.251277402343749,19.014256494140625Q7.55643740234375,19.194956494140627,7.89646740234375,19.098056494140625Q8.00987740234375,19.064156494140626,8.10435740234375,19.132356494140623L8.11267740234375,19.138456494140627L9.67393740234375,20.081656494140624L11.82818740234375,21.370756494140625L11.84096740234375,21.376556494140626Q11.97672740234375,21.438356494140624,11.96362740234375,21.593156494140626L11.96290740234375,21.601756494140623L11.96276740234375,21.610256494140625Q11.94873740234375,22.488756494140624,12.58626740234375,23.079256494140626Q13.22666740234375,23.672356494140626,14.08583740234375,23.569956494140627Q14.56173740234375,23.506056494140626,14.95053740234375,23.226556494140624Q15.59693740234375,22.761856494140623,15.73943740234375,21.968556494140625Q15.85273740234375,21.338556494140626,15.58183740234375,20.760756494140626Q15.31023740234375,20.181556494140626,14.75653740234375,19.876256494140627L14.74713740234375,19.871056494140625L14.73733740234375,19.866756494140624Q14.66813740234375,19.835956494140625,14.67563740234375,19.755656494140624L14.67673740234375,19.744056494140626L14.67673740234375,13.518846494140625Q14.67673740234375,13.413526494140624,14.70423740234375,13.399436494140625Q14.77703740234375,13.362436494140624,14.84703740234375,13.319176494140626Q15.69763740234375,12.801546494140625,15.80383740234375,11.797716494140625Q15.81253740234375,11.765076494140626,15.83833740234375,11.746266494140624Q17.32623740234375,11.088536494140625,18.82453740234375,10.441146494140625L19.81043740234375,10.016806494140624Q19.87003740234375,9.994446494140625,19.93273740234375,10.001406494140625Q20.68533740234375,10.163526494140626,20.92713740234375,9.415306494140625Q21.11553740234375,8.865306494140626,20.68873740234375,8.470906494140625Q20.61253740234375,8.399756494140625,20.52033740234375,8.348106494140625Q19.85003740234375,7.971546494140625,19.41423740234375,8.607066494140625Q19.336437402343748,8.705206494140626,19.22423740234375,8.756516494140625L17.28893740234375,9.504156494140625L16.42713740234375,9.836116494140626L15.33743740234375,10.256566494140625L15.32103740234375,10.265996494140625Q15.28053740234375,10.289186494140626,15.25013740234375,10.250876494140625L15.24413740234375,10.243376494140625L15.23763740234375,10.236346494140625Q14.69923740234375,9.654786494140625,13.91553740234375,9.642956494140625Q13.13546740234375,9.631176494140625,12.58278740234375,10.189166494140625Q12.53727740234375,10.234916494140625,12.49438740234375,10.284386494140625L12.48414740234375,10.296196494140625ZM22.04483740234375,15.134556494140625Q22.04283740234375,15.152756494140625,22.02773740234375,15.159156494140625L22.01803740234375,15.163356494140626L22.00863740234375,15.168256494140625Q21.04033740234375,15.682356494140626,21.08503740234375,16.794856494140625L21.08703740234375,16.843356494140625L21.10013740234375,16.872456494140625Q21.06573740234375,16.894956494140626,20.99563740234375,16.933256494140625L20.98513740234375,16.938956494140626L19.98823740234375,17.513256494140627L17.48673740234375,18.952556494140623Q17.44093740234375,18.977556494140625,17.38663740234375,18.968856494140624Q17.027137402343747,18.851856494140627,16.691237402343752,19.033056494140624Q16.349637402343753,19.217356494140624,16.24523740234375,19.595956494140623Q16.04253740234375,20.339056494140625,16.72143740234375,20.678656494140625Q16.79523740234375,20.717056494140625,16.879037402343748,20.741956494140624L16.883237402343752,20.743156494140624L16.88743740234375,20.744256494140625Q17.25733740234375,20.839956494140626,17.58213740234375,20.636156494140625Q17.898437402343752,20.437656494140626,17.98443740234375,20.071956494140625Q17.99963740234375,20.029956494140627,18.03453740234375,20.004956494140625L19.88083740234375,19.082156494140627L21.74813740234375,18.148856494140624Q22.07213740234375,18.409056494140625,22.47443740234375,18.486356494140622Q23.59293740234375,18.722156494140627,24.21863740234375,17.742956494140625Q24.63393740234375,17.119956494140624,24.47763740234375,16.378656494140625Q24.32103740234375,15.635956494140625,23.68563740234375,15.239756494140625L23.67663740234375,15.234156494140626L23.66723740234375,15.229356494140625Q23.54183740234375,15.165156494140625,23.55263740234375,15.019056494140624L23.55353740234375,15.007056494140626L23.55323740234375,14.994956494140625Q23.49183740234375,12.258266494140624,23.40543740234375,9.525976494140625L23.40503740234375,9.512536494140626L23.40313740234375,9.499226494140625Q23.39563740234375,9.445106494140624,23.44253740234375,9.430226494140625L23.46353740234375,9.423566494140626L23.48313740234375,9.413316494140625Q24.06163740234375,9.109956494140626,24.25713740234375,8.477256494140626Q24.45213740234375,7.846406494140625,24.15073740234375,7.260716494140625Q23.85203740234375,6.665616494140625,23.21963740234375,6.479646494140625Q22.58963740234375,6.294366494140625,22.02613740234375,6.633566494140625Q21.96623740234375,6.663536494140625,21.90113740234375,6.6505964941406255Q19.20633740234375,5.904306494140625,16.52743740234375,5.128009494140625Q16.48813740234375,5.111628494140625,16.464637402343747,5.074294494140625Q16.29823740234375,4.721937394140625,15.93063740234375,4.600608894140625Q15.55443740234375,4.476443494140625,15.20973740234375,4.673595804140625L15.20683740234375,4.675248784140625L15.20393740234375,4.676978294140625Q14.87703740234375,4.875674494140625,14.78443740234375,5.251363494140625Q14.69213740234375,5.625538494140625,14.88633740234375,5.956886494140625Q15.09073740234375,6.306286494140625,15.48343740234375,6.383946494140625Q15.87213740234375,6.460816494140625,16.18773740234375,6.2206964941406255Q16.19163740234375,6.218656494140625,16.195737402343752,6.218666494140625L18.78893740234375,7.246856494140625L21.25423740234375,8.231226494140625Q21.27323740234375,8.246166494140624,21.28083740234375,8.271136494140626Q21.42263740234375,9.124976494140626,22.20273740234375,9.463876494140624L22.04383740234375,15.111756494140625L22.04393740234375,15.113556494140624L22.04373740234375,15.121656494140625L22.04483740234375,15.134556494140625ZM22.54423740234375,15.109556494140625L22.54453740234375,15.100256494140625L22.54433740234375,15.098856494140625L22.70263740234375,9.475406494140625Q22.70573740234375,9.452896494140624,22.70643740234375,9.430186494140624L22.70663740234375,9.424206494140625L22.70653740234375,9.418216494140625Q22.70133740234375,9.094296494140625,22.40053740234375,9.004626494140625Q21.86733740234375,8.771596494140624,21.77253740234375,8.179966494140626L21.77113740234375,8.170836494140625L21.76893740234375,8.161836494140625Q21.71063740234375,7.915766494140625,21.49333740234375,7.791006494140625L21.47803740234375,7.782196494140625L18.97323740234375,6.782056494140625L16.35153740234375,5.742586494140625L16.34023740234375,5.739286494140625Q16.10393740234375,5.6705364941406255,15.90093740234375,5.810936494140625L15.89513740234375,5.8148964941406245L15.88963740234375,5.819176494140625Q15.75083740234375,5.927126494140625,15.58043740234375,5.893436494140625Q15.40863740234375,5.859466494140625,15.31773740234375,5.704016494140625Q15.09773740234375,5.328743494140625,15.46073740234375,5.106051494140625Q15.61083740234375,5.021571494140625,15.77393740234375,5.075416494140625Q15.94073740234375,5.130450494140625,16.01563740234375,5.294570494140625L16.02013740234375,5.304336494140625L16.025437402343748,5.313685494140625Q16.14173740234375,5.519554494140625,16.361837402343753,5.599985494140625L16.369837402343748,5.602915494140625L16.37803740234375,5.605291494140625Q19.06853740234375,6.3849964941406245,21.77493740234375,7.134466494140625L21.78103740234375,7.136146494140625L21.78713740234375,7.137516494140625Q22.03823740234375,7.193596494140625,22.26603740234375,7.072396494140625L22.27243740234375,7.068996494140626L22.27863740234375,7.065226494140624Q22.65643740234375,6.835206494140625,23.07863740234375,6.959336494140625Q23.50263740234375,7.084026494140625,23.70613740234375,7.489476494140625Q23.91413740234375,7.893736494140625,23.77943740234375,8.329636494140626Q23.64823740234375,8.754256494140625,23.26793740234375,8.961406494140626Q22.85033740234375,9.106356494140625,22.90613740234375,9.554196494140626Q22.99203740234375,12.272256494140624,23.05313740234375,14.995056494140625Q23.02473740234375,15.456156494140625,23.42903740234375,15.669056494140625Q23.87673740234375,15.952256494140626,23.98843740234375,16.481856494140626Q24.10133740234375,17.017556494140624,23.79733740234375,17.473756494140623Q23.35783740234375,18.161556494140626,22.56883740234375,17.995356494140623Q22.29273740234375,17.942256494140626,22.06813740234375,17.764556494140624Q21.93023740234375,17.634756494140625,21.73953740234375,17.636656494140624L21.72983740234375,17.636756494140627L21.72003740234375,17.637656494140625Q21.60403740234375,17.647956494140622,21.50673740234375,17.710456494140622L19.65733740234375,18.634856494140625L17.78663740234375,19.569856494140623L17.776437402343753,19.576356494140626Q17.57613740234375,19.702056494140624,17.50483740234375,19.929656494140623L17.50163740234375,19.939856494140624L17.49933740234375,19.950256494140625Q17.46133740234375,20.121656494140623,17.31633740234375,20.212656494140624Q17.17593740234375,20.300756494140625,17.01703740234375,20.261256494140625Q16.98123740234375,20.250256494140626,16.94513740234375,20.231556494140627Q16.63273740234375,20.075256494140625,16.72723740234375,19.728856494140626Q16.774937402343753,19.556056494140627,16.92863740234375,19.473156494140625Q17.07963740234375,19.391656494140626,17.24113740234375,19.447456494140624L17.25513740234375,19.452256494140627L17.26963740234375,19.455456494140627Q17.51263740234375,19.508256494140625,17.73613740234375,19.385956494140625L20.23783740234375,17.946456494140627L21.22973740234375,17.375056494140622L21.23513740234375,17.372156494140626Q21.61753740234375,17.163556494140625,21.61423740234375,16.892656494140624L21.61423740234375,16.889356494140625L21.61413740234375,16.886156494140625Q21.61123740234375,16.811856494140628,21.58343740234375,16.733456494140626Q21.57063740234375,15.971556494140625,22.23503740234375,15.614256494140625Q22.53683740234375,15.479456494140624,22.54493740234375,15.142256494140625L22.54503740234375,15.138256494140625L22.54503740234375,15.134156494140624Q22.54493740234375,15.121856494140625,22.54423740234375,15.109556494140625ZM12.88050740234375,10.602396494140624Q12.85580740234375,10.636806494140625,12.82620740234375,10.666966494140624Q12.54198740234375,10.950056494140625,12.19548740234375,10.767956494140625L8.57186740234375,9.315496494140625L6.75334740234375,8.588906494140625Q6.58707740234375,8.525856494140625,6.25764740234375,8.385856494140626Q6.18627740234375,8.355526494140625,6.150817402343749,8.340536494140625L5.9825274023437505,8.269396494140626L6.0189174023437495,7.872156494140625L6.14819740234375,7.811186494140625Q6.17062740234375,7.800616494140625,6.21696740234375,7.777806494140625Q6.33084740234375,7.7217764941406255,6.39450740234375,7.696436494140626L7.24398740234375,7.358826494140625L11.79300740234375,5.552079494140625Q12.13243740234375,5.395237494140625,12.42097740234375,5.636938494140625Q12.53425740234375,5.726116494140625,12.67436740234375,5.699896494140625Q12.81717740234375,5.6731664941406255,12.89348740234375,5.544627494140625L12.89559740234375,5.541073494140625L12.89781740234375,5.537592494140625Q12.96634740234375,5.430387494140625,12.96212740234375,5.302392494140625Q12.95685740234375,5.100631494140625,12.80028740234375,4.984494494140625Q12.68167740234375,4.893659494140625,12.54127740234375,4.923561494140625Q12.39931740234375,4.953797494140625,12.32661740234375,5.084404494140625L12.32454740234375,5.088129494140625L12.32234740234375,5.091780494140625Q12.12718740234375,5.415904494140625,11.76267740234375,5.492045494140625L9.10400740234375,6.245696494140625L6.04291740234375,7.1097264941406255Q5.91464740234375,7.1502464941406245,5.78023740234375,7.147876494140625Q5.5796074023437505,7.142796494140625,5.40459740234375,7.047586494140625Q5.21860740234375,6.954656494140625,5.01225740234375,6.940926494140625Q4.25731540234375,6.9123064941406245,4.03755440234375,7.6575664941406245L4.0365254023437505,7.661056494140626L4.03539540234375,7.664516494140625Q3.78911150234375,8.418136494140626,4.43529140234375,8.849676494140624Q4.81528740234375,9.075506494140626,4.78002740234375,9.519056494140624Q4.79076740234375,10.090226494140625,4.82760740234375,11.219736494140625Q4.84636740234375,11.794986494140625,4.8547374023437495,12.083156494140624L4.95048740234375,15.991256494140625L4.94986740234375,16.001756494140626Q4.94164740234375,16.139656494140624,4.88347740234375,16.264456494140624Q4.83320740234375,16.366656494140624,4.75896740234375,16.445056494140623L4.75459740234375,16.449656494140626L4.7500074023437495,16.454056494140623Q4.69486740234375,16.506656494140625,4.66251340234375,16.575456494140624Q4.53549940234375,16.835456494140622,4.72598840234375,17.044456494140626Q4.82188740234375,17.145356494140625,4.9632874023437505,17.148056494140626Q5.10450740234375,17.150856494140626,5.2075174023437505,17.050256494140626Q5.48490740234375,16.774956494140625,5.23013740234375,16.474156494140622L5.22583740234375,16.469156494140627L5.22181740234375,16.463856494140625Q5.06475740234375,16.257156494140624,5.05511740234375,15.996156494140624L5.05479740234375,15.987356494140625L5.13691740234375,13.512776494140626L5.22736740234375,9.450716494140625Q5.18357740234375,9.052336494140626,5.51799740234375,8.828406494140625Q5.56772740234375,8.795116494140625,5.62246740234375,8.771506494140624L5.62604740234375,8.769956494140626L5.62967740234375,8.768526494140625Q5.92430740234375,8.652176494140626,6.19438740234375,8.812196494140625L12.13835740234375,11.497456494140625Q12.46998740234375,11.639386494140625,12.52677740234375,12.002376494140625Q12.66100740234375,12.588896494140625,13.17131740234375,12.884976494140625Q13.57037740234375,13.073446494140626,13.53335740234375,13.518356494140624L13.53335740234375,13.562526494140625L13.53039740234375,15.466956494140625L13.53335740234375,19.329556494140625L13.53335740234375,19.348256494140625L13.53348740234375,19.351556494140624L13.53348740234375,19.356456494140623Q13.53304740234375,20.246656494140623,12.93862740234375,20.487356494140627L12.91642740234375,20.496556494140627L12.91604740234375,20.496656494140623Q12.63863740234375,20.611756494140625,12.42754740234375,20.507856494140626L10.82278740234375,19.704856494140625L8.39188740234375,18.487156494140624L8.38591740234375,18.483656494140625Q8.26681740234375,18.415556494140624,8.17194740234375,18.315556494140623Q8.081337402343749,18.216056494140624,8.022907402343751,18.100056494140624Q7.92308740234375,17.899356494140626,7.70701740234375,17.895656494140624Q7.63587740234375,17.893956494140625,7.57027740234375,17.919456494140626Q7.26352740234375,18.038756494140625,7.34747740234375,18.367656494140626Q7.38329740234375,18.511256494140625,7.50608740234375,18.584056494140626Q7.6262274023437495,18.655156494140627,7.75942740234375,18.617156494140623Q8.09754740234375,18.516056494140624,8.388117402343749,18.720656494140627L9.93249740234375,19.653756494140623L12.06165740234375,20.927756494140624Q12.49985740234375,21.134856494140625,12.46259740234375,21.625956494140624Q12.45503740234375,22.276156494140626,12.92602740234375,22.712356494140625Q13.39692740234375,23.148556494140625,14.02663740234375,23.073456494140625Q14.37133740234375,23.027156494140623,14.65873740234375,22.820556494140625Q15.14063740234375,22.474056494140626,15.24733740234375,21.880156494140625Q15.43663740234375,20.827356494140624,14.52353740234375,20.318756494140626Q14.14293740234375,20.143656494140625,14.17673740234375,19.721556494140625L14.17673740234375,13.518846494140625Q14.17673740234375,13.107716494140625,14.47653740234375,12.954326494140625Q14.53193740234375,12.926156494140624,14.58423740234375,12.893826494140624Q15.23133740234375,12.500056494140626,15.30783740234375,11.732946494140625L15.30893740234375,11.721256494140626L15.31123740234375,11.709736494140625Q15.36313740234375,11.444796494140625,15.59373740234375,11.309496494140625L15.60603740234375,11.302266494140625L15.61913740234375,11.296486494140625Q17.11753740234375,10.634046494140625,18.626237402343747,9.982156494140625L19.621337402343748,9.553826494140626L19.62543740234375,9.552246494140626Q19.81213740234375,9.479466494140624,20.01023740234375,9.507266494140625L20.02023740234375,9.508676494140625L20.03003740234375,9.510876494140625Q20.34783740234375,9.581946494140624,20.45133740234375,9.261576494140625Q20.53693740234375,9.011466494140624,20.34943740234375,8.838156494140625Q20.31543740234375,8.806436494140625,20.27593740234375,8.784316494140626Q20.00223740234375,8.630546494140624,19.82313740234375,8.894866494140626L19.81873740234375,8.901346494140626L19.81393740234375,8.907536494140626Q19.656137402343752,9.111696494140624,19.42223740234375,9.215706494140626L19.41653740234375,9.218226494140625L17.469137402343748,9.970566494140625L16.60683740234375,10.302696494140626L15.55153740234375,10.709896494140626Q15.15393740234375,10.926076494140625,14.86493740234375,10.569816494140625Q14.47353740234375,10.151436494140626,13.90793740234375,10.142896494140626Q13.34084740234375,10.134336494140625,12.93802740234375,10.541026494140624Q12.90831740234375,10.570896494140625,12.88050740234375,10.602396494140624Z" fill-rule="evenodd" fill="#FFFFFF" fill-opacity="1"/></g></g></svg>