<svg width="40" height="40" viewBox="0 0 40 40" fill="none" xmlns="http://www.w3.org/2000/svg">
<path d="M19.9248 3C29.2722 3 36.8495 10.5775 36.8496 19.9248C36.8496 29.2722 29.2722 36.8496 19.9248 36.8496C10.5775 36.8495 3 29.2722 3 19.9248C3.00011 10.5775 10.5775 3.00011 19.9248 3ZM11.9375 7.27246C11.1429 10.9131 9.80815 13.2464 8 14.3535L9.33203 16.6182C10.7061 15.7793 11.8324 14.5161 12.7256 12.8438H13.8516V18.1279H8.66602V20.7705H13.834C13.6952 23.4401 12.7054 25.6754 11.0645 27.6807C10.6147 28.2301 10.1412 28.7346 9.58398 29.2734C9.41812 29.4332 8.57806 30.2203 8.39746 30.4043L10.2305 32.2725C10.3643 32.1361 11.1669 31.384 11.3682 31.1895C11.9916 30.5858 12.5336 30.011 13.0547 29.373C14.3081 27.8407 15.2577 26.1723 15.8281 24.3203L18.5908 28.7451L20.7783 27.3262L16.6836 20.7705H19.6846V18.1279H16.4434V12.8438H19.6846V10.2012H13.834C14.0751 9.46673 14.2863 8.68185 14.4678 7.8457L11.9375 7.27246ZM21.6289 10.2012V28.6963H23.5732L24.8701 31.3389L28.1104 28.6963H32V10.2012H21.6289ZM29.4072 12.8438V26.0547H27.2002L25.7539 27.2344L25.1758 26.0547H24.2217V12.8438H29.4072Z" fill="#959599"/>
</svg>
